# xmcd
#
# Track frame offsets:
#	150
#	13752
#	26952
#	43506
#	56664
#	69234
#	82793
#	97344
#	111085
#	125302
#	138998
#	154021
#	173178
#	189548
#
# Disc length: 2754 seconds
#
# Revision: 0
# Processed by: cddbd v1.5.2PL0 Copyright (c) Steve Scherf et al.
# Submitted via: EasyCDDAExtractor 11.1.0.1
#
DISCID=b80ac00e
DTITLE=Various Artist - Mr. Music Country
DYEAR=2008
DGENRE=country
TTITLE0=Rick Sharp - Waylon still plays on
TTITLE1=Dale Watson - Runaway train
TTITLE2=Gretchen Wilson - Pain killer
TTITLE3=Tommy Hooker - Waltz of the wine
TTITLE4=Duane Michaels - If I weren't for country music I'd go crazy
TTITLE5=Dottie Jack - I'm not over you
TTITLE6=Glenn Lenderman - Compared to him
TTITLE7=Ronnie Bear - This cowboy is an indian
TTITLE8=Leona Williams - Three nickels and a dime
TTITLE9=Kenny Orts - Whiskey river
TTITLE10=Carolyn Daawn Johnson - Die of a broken heart
TTITLE11=Montgomery Gentry - Redder than that
TTITLE12=Rebel Hearts - Wrangler walk
TTITLE13=The Bastard sons of Johnny Cash and Billy Bob Thornton - Long black vei
TTITLE13=l
EXTD=
EXTT0=
EXTT1=
EXTT2=
EXTT3=
EXTT4=
EXTT5=
EXTT6=
EXTT7=
EXTT8=
EXTT9=
EXTT10=
EXTT11=
EXTT12=
EXTT13=
PLAYORDER=
